<?xml version="1.0" encoding="UTF-8"?>
<svg width="200px" height="200px" viewBox="0 0 200 200" version="1.1" xmlns="http://www.w3.org/2000/svg" xmlns:xlink="http://www.w3.org/1999/xlink">
    <!-- Generator: Sketch 53 (72520) - https://sketchapp.com -->
    <title>bug</title>
    <desc>Created with Sketch.</desc>
    <g id="Logo" stroke="none" stroke-width="1" fill="none" fill-rule="evenodd">
        <g id="masthead" transform="translate(-0.000000, 0.000000)" fill="#22538E">
            <path d="M71.6317171,65.3683205 C67.1406928,60.8772265 59.8593072,60.8772265 55.3682829,65.3683205 C50.877239,69.8593162 50.877239,77.1406838 55.3682829,81.6316795 C59.8593072,86.1227735 67.1406928,86.1227735 71.6317171,81.6316795 C76.122761,77.1406838 76.122761,69.8593162 71.6317171,65.3683205 L71.6317171,65.3683205 Z M151.631679,110.368283 C147.140684,105.877239 139.859316,105.877239 135.368321,110.368283 C130.877226,114.859307 130.877226,122.140693 135.368321,126.631717 C139.859316,131.122761 147.140684,131.122761 151.631679,126.631717 C156.122774,122.140693 156.122774,114.859307 151.631679,110.368283 L151.631679,110.368283 Z M70.6317171,156.368283 C66.1406928,151.877239 58.8593072,151.877239 54.3682829,156.368283 C49.877239,160.859307 49.877239,168.140693 54.3682829,172.631717 C58.8593072,177.122761 66.1406928,177.122761 70.6317171,172.631717 C75.122761,168.140693 75.122761,160.859307 70.6317171,156.368283 L70.6317171,156.368283 Z M1.42108547e-14,144.28407 L43.7663574,156.055758 C44.7733203,154.024334 46.1200879,152.119442 47.8066602,150.426476 C56.1745605,142.026762 69.7396094,142.023556 78.1114746,150.416859 L122.459863,125.740809 C121.425195,122.167762 121.331348,118.378388 122.178223,114.766081 L78.6991016,89.0552381 C78.5972461,89.1616955 78.4940918,89.2673687 78.3896289,89.3722576 C70.0185254,97.7751379 56.4463184,97.7751379 48.0752148,89.3722576 C39.704082,80.9693774 39.704082,67.3455756 48.0752148,58.9426954 C56.4463184,50.5398152 70.0185254,50.5398152 78.3896289,58.9426954 C78.527002,59.0806195 78.6621289,59.2199159 78.7949902,59.3605848 L125.769629,33.2232357 L119.04707,21.0492542 L160.494629,19.6178629 L137.321387,54.1423099 L130.598828,41.9683284 L83.7812402,68.0183354 L83.7812402,68.0183354 C84.9768848,72.0638144 84.9634082,76.3926897 83.7408105,80.431797 L126.674219,105.819984 C127.056152,105.367707 127.459668,104.927516 127.884766,104.500795 C136.255859,96.0978947 149.828125,96.0978947 158.199219,104.500795 C166.570312,112.903685 166.570312,126.527428 158.199219,134.930318 C155.3875,137.752674 151.989062,139.627069 148.398047,140.553484 L148.398047,197 C179.161816,191.862743 200,181.982506 200,170.645519 L200,30.1139151 C200,13.4910732 155.2,0 100,0 C44.8,0 1.42108547e-14,13.4910732 1.42108547e-14,30.1139151 L1.42108547e-14,144.28407 Z M1.42108547e-14,154.108347 L1.42108547e-14,170.037706 C1.42108547e-14,186.576892 44.9821585,200 100.406604,200 C114.079454,200 127.116722,199.183106 139,197.704057 L139,140.275667 C135.117186,139.430042 131.424008,137.505588 128.40475,134.502327 C128.238452,134.33689 128.075389,134.169416 127.91566,134 L83.6772458,158.391775 C86.1151358,165.813373 84.3689629,174.297999 78.4387175,180.196777 C70.0335768,188.557388 56.4061846,188.557388 48.0010439,180.196777 C43.8402295,176.05804 41.7391429,170.646344 41.697784,165.221998 L1.42108547e-14,154.108347 Z" id="bug"></path>
        </g>
    </g>
</svg>