<?xml version="1.0" encoding="UTF-8"?>
<svg width="1025px" height="1024px" viewBox="0 0 1025 1024" version="1.1" xmlns="http://www.w3.org/2000/svg" xmlns:xlink="http://www.w3.org/1999/xlink">
    <!-- Generator: Sketch 53.2 (72643) - https://sketchapp.com -->
    <title>icon</title>
    <desc>Created with Sketch.</desc>
    <defs>
        <path d="M1024.27149,153.6 L1024.27149,870.4 C1024.27149,955.1872 794.895487,1024 512.271487,1024 C229.647487,1024 0.271486627,955.1872 0.271486627,870.4 L0.271486627,153.6 C0.271486627,68.8128 229.647487,0 512.271487,0 C794.895487,0 1024.27149,68.8128 1024.27149,153.6 Z" id="path-1"></path>
    </defs>
    <g id="Sqitch" stroke="none" stroke-width="1" fill="none" fill-rule="evenodd">
        <g id="icon">
            <mask id="mask-2" fill="white">
                <use xlink:href="#path-1"></use>
            </mask>
            <use id="Mask" fill="#22538E" xlink:href="#path-1"></use>
            <rect id="Rectangle" fill="#FFFFFF" mask="url(#mask-2)" transform="translate(114.500000, 719.320415) rotate(31.000000) translate(-114.500000, -719.320415) " x="-48" y="695.320415" width="325" height="48"></rect>
            <path d="M267.423217,939.535627 C215.34917,908.246383 198.499758,840.667083 229.789002,788.593036 C261.078246,736.518989 328.657546,719.669577 380.731593,750.958821 C432.80564,782.248065 449.655052,849.827365 418.365808,901.901413 C387.076564,953.97546 319.497264,970.824872 267.423217,939.535627 Z M293.690159,895.820095 C321.620784,912.602508 357.867863,903.565096 374.650276,875.634471 C391.432689,847.703845 382.395277,811.456766 354.464651,794.674354 C326.534026,777.891941 290.286947,786.929353 273.504534,814.859978 C256.722121,842.790603 265.759533,879.037682 293.690159,895.820095 Z" id="Combined-Shape" fill="#FFFFFF" mask="url(#mask-2)"></path>
            <rect id="Rectangle" fill="#FFFFFF" mask="url(#mask-2)" transform="translate(528.327128, 727.762794) rotate(-30.000000) translate(-528.327128, -727.762794) " x="370.327128" y="703.762794" width="316" height="48"></rect>
            <rect id="Rectangle" fill="#FFFFFF" mask="url(#mask-2)" transform="translate(733.271487, 863.500000) rotate(270.000000) translate(-733.271487, -863.500000) " x="554.771487" y="839.5" width="357" height="48"></rect>
            <path d="M843.271487,609 C843.271487,669.751322 794.022809,719 733.271487,719 C672.520164,719 623.271487,669.751322 623.271487,609 C623.271487,548.248678 672.520164,499 733.271487,499 C794.022809,499 843.271487,548.248678 843.271487,609 Z M792.271487,609 C792.271487,576.4152 765.856287,550 733.271487,550 C700.686686,550 674.271487,576.4152 674.271487,609 C674.271487,641.5848 700.686686,668 733.271487,668 C765.856287,668 792.271487,641.5848 792.271487,609 Z" id="Combined-Shape" fill="#FFFFFF" mask="url(#mask-2)"></path>
            <rect id="Rectangle" fill="#FFFFFF" mask="url(#mask-2)" transform="translate(529.782302, 494.762794) rotate(-150.000000) translate(-529.782302, -494.762794) " x="367.782302" y="470.762794" width="324" height="48"></rect>
            <path d="M379.534281,281.5 C432.14647,311.875661 450.172737,379.150606 419.797075,431.762794 C389.421414,484.374983 322.14647,502.40125 269.534281,472.025589 C216.922092,441.649928 198.895825,374.374983 229.271487,321.762794 C259.647148,269.150606 326.922092,251.124339 379.534281,281.5 Z M354.034281,325.667296 C325.815016,309.374895 289.731182,319.04353 273.438782,347.262794 C257.146382,375.482059 266.815016,411.565893 295.034281,427.858293 C323.253546,444.150693 359.33738,434.482059 375.62978,406.262794 C391.92218,378.04353 382.253546,341.959696 354.034281,325.667296 Z" id="Combined-Shape" fill="#FFFFFF" mask="url(#mask-2)"></path>
            <rect id="Rectangle" fill="#FFFFFF" mask="url(#mask-2)" transform="translate(532.380378, 256.762794) scale(-1, -1) rotate(-30.000000) translate(-532.380378, -256.762794) " x="369.380378" y="232.762794" width="326" height="48"></rect>
            <polygon id="Triangle" fill="#FFFFFF" mask="url(#mask-2)" transform="translate(734.197273, 140.806332) rotate(60.000000) translate(-734.197273, -140.806332) " points="734.197273 46.8063324 821.808923 234.806332 646.585622 234.806332"></polygon>
        </g>
    </g>
</svg>