<?xml version="1.0" encoding="utf-8"?>
<!-- Generator: Adobe Illustrator 23.0.2, SVG Export Plug-In . SVG Version: 6.00 Build 0)  -->
<svg version="1.1" id="Layer_1" xmlns="http://www.w3.org/2000/svg" xmlns:xlink="http://www.w3.org/1999/xlink" x="0px" y="0px"
	 viewBox="0 0 1440 393.8" style="enable-background:new 0 0 1440 393.8;" xml:space="preserve">
<g  fill="#776c5e">
	<g>
		<g>
			<path d="M354.9,352.9l-8,16.8h-8.5v-1l31.7-67.3h3.7l31.4,67.3v1h-8.4l-8-16.8H354.9z M357.6,346h28.6l-14.3-31.8L357.6,346z"/>
		</g>
		<g>
			<polygon points="428.3,309 428.3,301.7 478.2,301.7 478.2,309 457.2,309 457.2,369.8 449.3,369.8 449.3,309 			"/>
		</g>
		<g>
			<path d="M500.2,322.1c4.1,0,7.8,1.2,11,3.5l-1.8,6.4c-3-1.9-6.3-3.1-9.9-3.1c-6.7,0-13,4.8-13,12.2v28.8h-7.5v-35.5
				c0-4.2-0.1-6.9-5.7-6.4l-0.1-5c7.3-1.3,12.5-0.5,12.7,6.7C488.8,324.1,494.2,322.1,500.2,322.1z"/>
		</g>
		<g>
			<path d="M530.2,370.7c-8.6,0-16.6-4.2-16.6-13.7c0-10.4,8.2-15.5,17.9-15.5c5.4,0,11.4,0.8,16.2,3.4v-6.8c0-7.8-8.3-9.8-14.8-9.8
				c-5.4,0-10.3,1-14.3,3.4l-1.3-6c4.6-2.3,10.5-3.5,16.7-3.5c10.6,0,20.8,3.9,20.5,16.2v19.5c0,5.1-0.3,8.2,5.4,7.4l0.1,5
				c-7.8,1.3-11.4-0.2-11.4-8.7C545.3,367.8,537.3,370.7,530.2,370.7z M547.6,350.6c-2.9-1.8-8.9-3.3-14.3-3.3
				c-6,0-12.2,2.4-12.2,9.1c0,6,5.1,7.7,10.4,7.7c6.2,0,14.1-2.9,16.1-10.5L547.6,350.6z"/>
		</g>
		<g>
			<path d="M602.9,369.8v-27.7c0-8.5-5.4-13.7-13.1-13.7c-8,0-14,5.4-14,13.4v28.1h-7.6v-33.4c0-6.3-0.5-8-5.4-7.5l-0.1-6
				c5.4-0.8,12.6-1.9,12.6,7.1c4.2-6.3,9.9-7.8,16.6-7.8c12.3,0,18.8,8.6,18.8,20v27.7L602.9,369.8L602.9,369.8z"/>
		</g>
		<g>
			<path d="M626,356.5c0.5,5.9,7.1,8,13.4,8c6.5,0,13-2.4,13.2-8.2c0-5.4-4.5-6.5-13.1-7.8c-9.2-1-19.4-3-19.7-12.7
				c-0.3-9.8,9.8-13.8,19.4-13.8c9.8,0,19.8,4.4,19.4,13.4h-7.3c0-5-6-7.4-12.2-7.4c-5.9,0-12.6,2.2-12.2,7.6
				c0.1,4.6,4.5,5.8,13.1,7c9.8,1.3,20.2,2.6,19.8,13.7c0,9.6-9.8,14-20.6,14.3c-10.2,0-20-3.4-20.8-14.1h7.4V356.5z"/>
		</g>
		<g>
			<path d="M669.7,346.6v-44.9h8.2v44.8c0,10.8,7.6,16.8,18,16.8c10.3,0,17.9-6,17.9-16.8v-44.8h8v44.9c0,15.3-11.2,24-25.8,24
				C681.1,370.7,669.7,361.9,669.7,346.6z"/>
		</g>
		<g>
			<path d="M770.4,369.8v-27.7c0-8.5-5.4-13.7-13.1-13.7c-8,0-14,5.4-14,13.4v28.1h-7.6v-33.4c0-6.3-0.5-8-5.4-7.5l-0.1-6
				c5.4-0.8,12.6-1.9,12.6,7.1c4.2-6.3,9.9-7.8,16.6-7.8c12.3,0,18.8,8.6,18.8,20v27.7L770.4,369.8L770.4,369.8z"/>
		</g>
		<g>
			<path d="M798.3,307.5c0,6.5-9.6,6.5-9.6,0C788.6,301,798.3,301,798.3,307.5z M797.2,369.8h-7.6v-46.9h7.6
				C797.2,322.9,797.2,369.8,797.2,369.8z"/>
		</g>
		<g>
			<path d="M830.7,370.7c-12.2-0.1-24.5-8.2-24.5-24.4c0-16.3,12.5-24.2,24.8-24.2s24.6,8,24.6,24.2
				C855.6,362.5,843.1,370.8,830.7,370.7z M830.9,364.3c8.6,0,17-6.2,17-18.1c0-11.8-8.6-17.7-17.1-17.7s-17,5.8-17,17.7
				C813.8,358.2,822.4,364.3,830.9,364.3z"/>
		</g>
		<g>
			<path d="M900.1,369.8v-27.7c0-8.5-5.4-13.7-13.1-13.7c-8,0-14,5.4-14,13.4v28.1h-7.6v-33.4c0-6.3-0.5-8-5.4-7.5l-0.1-6
				c5.4-0.8,12.6-1.9,12.6,7.1c4.2-6.3,9.9-7.8,16.6-7.8c12.3,0,18.8,8.6,18.8,20v27.7L900.1,369.8L900.1,369.8z"/>
		</g>
		<g>
			<path d="M911.5,301.3c0-25.8,38.4-25.8,38.4,0C949.9,327.1,911.5,327.2,911.5,301.3z M946.5,301.3c0-21.9-31.6-21.9-31.6,0
				C914.9,323.1,946.5,323.1,946.5,301.3z M939.3,310.1v0.5h-3l-4.8-6.6h-4v6.6h-2.9v-18.6h7.6c3.7,0,6.6,2.2,6.6,6.1
				c0,2.8-1.7,5-4.4,5.5L939.3,310.1z M927.5,301.7h4.5c2.2,0,3.9-1.4,3.9-3.6c0-2.1-1.7-3.6-3.9-3.6h-4.5V301.7z"/>
		</g>
		<g>
			<path d="M1004.3,300.9c13.1,0,26.2,7.1,30.2,21.3h-7.8c-4.2-9.2-12.6-13.8-22.4-13.8c-15.7-0.3-26.2,11.6-26.2,27.4
				c0,15.4,10.4,27.3,26.1,27.3c10.4,0,19.3-5.3,22.9-15h7.8c-3.9,15.3-17,22.6-30.6,22.6c-19,0-34.4-13.4-34.4-34.8
				C969.9,314.5,985.1,300.5,1004.3,300.9z"/>
		</g>
		<g>
			<path d="M1065.9,370.7c-12.2-0.1-24.5-8.2-24.5-24.4c0-16.3,12.5-24.2,24.8-24.2s24.6,8,24.6,24.2
				C1090.7,362.5,1078.3,370.8,1065.9,370.7z M1066.2,364.3c8.6,0,17-6.2,17-18.1c0-11.8-8.6-17.7-17.1-17.7c-8.6,0-17,5.8-17,17.7
				C1049.1,358.2,1057.6,364.3,1066.2,364.3z"/>
		</g>
		<g>
			<path d="M1164.2,369.8v-27.9c0-7.5-2.7-13.5-10.6-13.5c-7.8,0-13.8,5.8-13.8,14.1v27.3h-7.6v-27.5c0-7.8-2.7-13.9-10.9-13.9
				s-13.1,5.6-13.1,14.2v27.2h-7.6v-33.9c0-6.2-0.5-8.1-5.4-7.6l-0.1-5.5c6.6-1,12.5-1.7,12.5,7.6c3.4-6.2,9.1-8.2,15.8-8.2
				c7.8,0,12.6,3.4,14.5,10c3.7-7.4,10.1-10,17.9-10c12.6,0,16.2,9,16.2,19.8v27.9L1164.2,369.8L1164.2,369.8z"/>
		</g>
		<g>
			<path d="M1208.3,322.1c13.7,0,21.2,10.6,21.2,24c0,15-10.5,24.6-22.6,24.6c-4.9,0-9.9-0.9-14.7-4.1v27.3h-7.6v-55.4
				c0-6,0.6-10.9-5.5-10.1l-0.1-5.6c7.4-1.3,12.5,0.5,12.2,7.8C1195.1,324.2,1201.9,322.1,1208.3,322.1z M1192,359.5
				c4.2,3.4,9,4.5,13.5,4.5c8.6,0,16.2-6.5,16.2-17.9c0-9.4-4.4-17.1-14.9-17.1c-9,0-14.5,7.1-14.8,15.2V359.5z"/>
		</g>
		<g>
			<path d="M1251.7,370.7c-8.6,0-16.6-4.2-16.6-13.7c0-10.4,8.2-15.5,17.9-15.5c5.4,0,11.4,0.8,16.2,3.4v-6.8
				c0-7.8-8.3-9.8-14.8-9.8c-5.4,0-10.3,1-14.3,3.4l-1.3-6c4.6-2.3,10.5-3.5,16.7-3.5c10.6,0,20.8,3.9,20.5,16.2v19.5
				c0,5.1-0.3,8.2,5.4,7.4l0.1,5c-7.8,1.3-11.4-0.2-11.4-8.7C1266.7,367.8,1258.8,370.7,1251.7,370.7z M1269.1,350.6
				c-2.9-1.8-8.9-3.3-14.3-3.3c-6,0-12.2,2.4-12.2,9.1c0,6,5.1,7.7,10.4,7.7c6.2,0,14.1-2.9,16.1-10.5V350.6z"/>
		</g>
		<g>
			<path d="M1324.4,369.8v-27.7c0-8.5-5.4-13.7-13.1-13.7c-8,0-14,5.4-14,13.4v28.1h-7.6v-33.4c0-6.3-0.5-8-5.4-7.5l-0.1-6
				c5.4-0.8,12.6-1.9,12.6,7.1c4.2-6.3,9.9-7.8,16.6-7.8c12.3,0,18.8,8.6,18.8,20v27.7L1324.4,369.8L1324.4,369.8z"/>
		</g>
		<g>
			<path d="M1363.8,373.1c-5.3,12.6-10.6,25.4-26,18.8l1-5.6c9,4.2,12.6-1.7,15.8-9.4l2.7-6.6l-21.5-46.5v-0.8h8.2l9.4,20.9
				l7.7,18.6h0.1l7.1-18.4l8.6-21.1h7.7v0.8L1363.8,373.1z"/>
		</g>
	</g>
	<g>
		<path d="M140.5,0c-7.8,0-15.4,0.6-22.8,1.8c0,0.3,0,0.6,0,1V128c0,10.1-3.8,15-11.8,15c-7.8,0-11.8-5-11.8-15v-26
			c-12.2,14.8-16.9,34.6-11.7,53.8c8.6,32.1,41.7,51.2,73.8,42.6s51.2-41.7,42.6-73.8c-6.5-24.2-26.7-41.6-51.6-44.3
			c-6.2-0.7-10.6-6.2-9.9-12.4c0.6-6.2,6.2-10.6,12.3-9.9c34.2,3.8,61.9,27.6,70.8,60.8c11.8,44-14.5,89.4-58.5,101.2
			s-89.4-14.5-101.2-58.5c-8.9-33.1,3.2-67.6,30.8-87.9c0.8-0.6,1.7-1,2.5-1.4V9.5c0-0.6,0.1-1.1,0.1-1.7C39.4,27,0,79.1,0,140.6
			C0,218.1,63,281,140.5,281c77.6,0,140.6-62.9,140.6-140.5C281,62.9,218.1,0,140.5,0L140.5,0z"/>
	</g>
	<g>
		<path d="M865.8,207.3c0,0-0.2,6.9-0.2,7.7c0,13.2-7.2,26.3-25.8,26.3c-21,0-49.4,0-62.8,0c-29.4,0-46.8-17.4-46.8-47.9
			c0-29.6,13.9-42.4,45.7-49.1c19.2-4.1,34.3-4.1,43.3-7c4.1-1.4,6.4-5.3,6.4-11.6c0-12.8-7.6-17.4-25.3-17.4
			c-9.9,0-17.8,2.9-23.5,7.8c-6.7,6.1-11.6,15.4-23,15.4c-9.3,0-16.6-7.3-16.6-16.9c0-18.6,24.2-38.6,61.6-38.6
			c43.6,0,66.9,15.7,66.9,43.6L865.8,207.3L865.8,207.3z M789.3,170.4c-13.1,3.8-19.5,8.7-19.5,20.6c0,11.6,7.8,18.6,21.5,18.6
			c-0.1,0,34.9-0.2,34.9-0.2V160C810.5,167.3,797.5,168.2,789.3,170.4L789.3,170.4z"/>
	</g>
	<g>
		<path d="M408.6,60c0,11.7-10.2,21.8-21.8,21.8c-12,0-21.8-9.6-21.8-21.8s9.6-21.8,21.8-21.8C398.7,38.1,408.6,48,408.6,60
			L408.6,60z"/>
	</g>
	<g>
		<path d="M400.1,160.6c0,45.4,36.9,82.2,82.3,82.2c45.4,0,82.2-36.9,82.2-82.2s-36.9-82.2-82.2-82.2
			C437,78.4,400.1,115.3,400.1,160.6L400.1,160.6z M437.3,160.6c0-24.8,20.2-45,45-45c24.8,0,45,20.2,45,45c0,24.9-20.2,45-45,45
			C457.6,205.7,437.3,185.4,437.3,160.6L437.3,160.6z"/>
	</g>
	<g>
		<path d="M1055.5,160.6c0,45.4,37,82.2,82.3,82.2c45.4,0,82.2-36.9,82.2-82.2s-36.9-82.2-82.2-82.2
			C1092.4,78.4,1055.5,115.3,1055.5,160.6L1055.5,160.6z M1092.7,160.6c0-24.8,20.2-45,45-45c24.8,0,45,20.2,45,45
			c0,24.9-20.2,45-45,45C1113,205.7,1092.7,185.4,1092.7,160.6L1092.7,160.6z"/>
	</g>
	<g>
		<path d="M681.2,82.2l-37.8,112.4L607.3,82.2l-45.7,0.1l49.4,139c5.5,15.8,18.5,21.5,33.5,21.5c15.5-0.5,25.1-3.4,31.7-21.5
			l50.8-139L681.2,82.2L681.2,82.2z"/>
	</g>
	<g>
		<path d="M1331,79.8c-19.5-1.6-40.6,2.2-47.4,11.9v-9.5h-40.2v137.5c0,15.4,7.1,23,20.8,23s20.7-7.6,20.7-23v-71.4
			c0-20.4,12.6-32.6,31.8-32.6c17.8,0,23.9,9.9,23.9,30.9v73.2c0,15.4,7,23,20.7,23s20.7-7.6,20.7-23v-85.1
			C1382,99.1,1358,82.1,1331,79.8L1331,79.8z"/>
	</g>
	<g>
		<path d="M351.3,71.5h-11.4v148.2c0,15.4,7,23,20.7,23s20.7-7.6,20.7-23V97C367,95.4,355.2,85.3,351.3,71.5L351.3,71.5z"/>
	</g>
	<g>
		<path d="M1059.9,60c0,11.7-10.2,21.8-21.8,21.8c-12,0-21.9-9.6-21.9-21.8s9.6-21.8,21.9-21.8C1049.9,38.1,1059.9,48,1059.9,60
			L1059.9,60z"/>
	</g>
	<g>
		<path d="M1002.5,71.5h-11.4l0.1,148.2c0,15.4,7,23,20.7,23c13.7,0,20.7-7.6,20.7-23V97C1018.3,95.4,1006.4,85.3,1002.5,71.5
			L1002.5,71.5z"/>
	</g>
	<g>
		<path d="M953.5,209.6c-2.9,0-5.3,0.3-7,0.3c-7.3,0-9-2.6-9-9.6v-85.8H948c11,0,16.6-5,16.6-14.6c0-9.9-5.5-14.6-16.6-14.6h-10.6
			V56.2h-41.4L896,198.2c0,32.1,7.8,44.6,43.4,44.6c19.5,0,28.6-5.5,28.6-19C968.1,215.2,962.8,209.6,953.5,209.6L953.5,209.6z"/>
	</g>
	<g>
		<g>
			<path d="M1397.8,221.6c0-28.4,42.2-28.4,42.2,0C1439.9,249.9,1397.8,250.1,1397.8,221.6z M1436.2,221.6c0-24.1-34.8-24.1-34.8,0
				C1401.5,245.6,1436.2,245.6,1436.2,221.6z M1428.3,231.3v0.5h-3.3l-5.3-7.2h-4.4v7.2h-3.2v-20.4h8.3c4.1,0,7.2,2.4,7.2,6.6
				c0,3-1.8,5.5-4.8,6.1L1428.3,231.3z M1415.3,222h5c2.5,0,4.3-1.5,4.3-3.9c0-2.3-1.8-3.9-4.3-3.9h-5V222z"/>
		</g>
	</g>
</g>
</svg>
