<?xml version="1.0" encoding="UTF-8"?>
<svg width="762px" height="200px" viewBox="0 0 762 200" version="1.1" xmlns="http://www.w3.org/2000/svg" xmlns:xlink="http://www.w3.org/1999/xlink">
    <!-- Generator: Sketch 53 (72520) - https://sketchapp.com -->
    <title>masthead</title>
    <desc>Created with Sketch.</desc>
    <g id="Logo" stroke="none" stroke-width="1" fill="none" fill-rule="evenodd">
        <g id="masthead" transform="translate(-0.000000, 0.000000)">
            <path d="M310.941176,58.5452941 L285.021176,58.5452941 L285.021176,52.7005882 C285.021176,46.7711468 283.623543,41.6464922 280.828235,37.3264706 C278.032927,33.006449 273.331798,30.8464706 266.724706,30.8464706 C263.167041,30.8464706 260.28707,31.5241109 258.084706,32.8794118 C255.882342,34.2347127 254.103536,35.9288134 252.748235,37.9617647 C251.392934,40.1641287 250.461179,42.6629272 249.952941,45.4582353 C249.444703,48.2535434 249.190588,51.1758671 249.190588,54.2252941 C249.190588,57.782959 249.317646,60.7476352 249.571765,63.1194118 C249.825884,65.4911883 250.461171,67.6088142 251.477647,69.4723529 C252.494123,71.3358917 253.976461,72.9452873 255.924706,74.3005882 C257.872951,75.6558891 260.54116,77.0111697 263.929412,78.3664706 L283.750588,86.2441176 C289.510617,88.4464816 294.169394,91.0299852 297.727059,93.9947059 C301.284724,96.9594266 304.07999,100.389981 306.112941,104.286471 C307.97648,108.352373 309.247055,112.968798 309.924706,118.135882 C310.602356,123.302967 310.941176,129.189967 310.941176,135.797059 C310.941176,143.420626 310.178831,150.493497 308.654118,157.015882 C307.129404,163.538268 304.672958,169.086448 301.284706,173.660588 C297.727041,178.404141 293.068264,182.131163 287.308235,184.841765 C281.548206,187.552366 274.517689,188.907647 266.216471,188.907647 C259.948204,188.907647 254.103557,187.806482 248.682353,185.604118 C243.261149,183.401754 238.602372,180.352372 234.705882,176.455882 C230.809392,172.559392 227.717658,168.027673 225.430588,162.860588 C223.143518,157.693504 222,152.060619 222,145.961765 L222,136.305294 L247.92,136.305294 L247.92,144.437059 C247.92,149.180612 249.317633,153.458216 252.112941,157.27 C254.908249,161.081784 259.609379,162.987647 266.216471,162.987647 C270.621198,162.987647 274.051752,162.352359 276.508235,161.081765 C278.964718,159.81117 280.870581,157.990012 282.225882,155.618235 C283.581183,153.246459 284.385881,150.40884 284.64,147.105294 C284.894119,143.801748 285.021176,140.117079 285.021176,136.051176 C285.021176,131.307623 284.851766,127.411192 284.512941,124.361765 C284.174116,121.312338 283.496476,118.855892 282.48,116.992353 C281.294112,115.128814 279.727069,113.604124 277.778824,112.418235 C275.830578,111.232347 273.247075,109.961771 270.028235,108.606471 L251.477647,100.982941 C240.296415,96.4088007 232.800019,90.3523906 228.988235,82.8135294 C225.176452,75.2746682 223.270588,65.8300568 223.270588,54.4794118 C223.270588,47.7029073 224.202344,41.2653246 226.065882,35.1664706 C227.929421,29.0676166 230.724687,23.8159044 234.451765,19.4111765 C238.00943,15.0064486 242.541149,11.4911896 248.047059,8.86529412 C253.552969,6.23939864 260.117609,4.92647059 267.741176,4.92647059 C274.178856,4.92647059 280.065856,6.11234108 285.402353,8.48411765 C290.73885,10.8558942 295.355275,13.9899805 299.251765,17.8864706 C307.044745,26.018276 310.941176,35.3358298 310.941176,45.8394118 L310.941176,58.5452941 Z M354.649412,144.691176 C354.649412,150.959443 356.385865,155.575868 359.858824,158.540588 C363.331782,161.505309 367.439976,162.987647 372.183529,162.987647 C374.555306,162.987647 376.418817,162.648827 377.774118,161.971176 L366.084706,152.568824 L379.298824,136.813529 L389.717647,145.199412 L389.717647,49.1429412 C389.717647,42.8746745 387.981194,38.2582501 384.508235,35.2935294 C381.035277,32.3288087 376.927083,30.8464706 372.183529,30.8464706 C367.439976,30.8464706 363.331782,32.3288087 359.858824,35.2935294 C356.385865,38.2582501 354.649412,42.8746745 354.649412,49.1429412 L354.649412,144.691176 Z M328.729412,49.1429412 C328.729412,41.8581989 329.999987,35.4206162 332.541176,29.83 C335.082366,24.2393838 338.470567,19.5806069 342.705882,15.8535294 C346.771785,12.2958646 351.388209,9.58530344 356.555294,7.72176471 C361.722379,5.85822598 366.931738,4.92647059 372.183529,4.92647059 C377.43532,4.92647059 382.64468,5.85822598 387.811765,7.72176471 C392.978849,9.58530344 397.679979,12.2958646 401.915294,15.8535294 C405.981197,19.5806069 409.284693,24.2393838 411.825882,29.83 C414.367072,35.4206162 415.637647,41.8581989 415.637647,49.1429412 L415.637647,144.691176 C415.637647,151.806506 414.367072,157.989974 411.825882,163.241765 L427.835294,176.201765 L414.621176,191.957059 L399.374118,179.505294 C391.581138,185.773561 382.517699,188.907647 372.183529,188.907647 C366.931738,188.907647 361.722379,187.975892 356.555294,186.112353 C351.388209,184.248814 346.771785,181.453548 342.705882,177.726471 C338.470567,174.168806 335.082366,169.679439 332.541176,164.258235 C329.999987,158.837032 328.729412,152.314744 328.729412,144.691176 L328.729412,49.1429412 Z M439.270588,187.382941 L439.270588,6.45117647 L465.190588,6.45117647 L465.190588,187.382941 L439.270588,187.382941 Z M507.374118,187.382941 L507.374118,30.8464706 L477.388235,30.8464706 L477.388235,6.45117647 L563.28,6.45117647 L563.28,30.8464706 L533.294118,30.8464706 L533.294118,187.382941 L507.374118,187.382941 Z M657.049412,135.797059 L657.049412,146.978235 C657.049412,152.568851 655.990599,157.862916 653.872941,162.860588 C651.755284,167.85826 648.83296,172.305275 645.105882,176.201765 C641.378805,180.098255 637.016496,183.189989 632.018824,185.477059 C627.021151,187.764129 621.642382,188.907647 615.882353,188.907647 C610.969387,188.907647 605.97179,188.230007 600.889412,186.874706 C595.807033,185.519405 591.232962,183.147664 587.167059,179.759412 C583.101156,176.37116 579.755307,172.00885 577.129412,166.672353 C574.503516,161.335856 573.190588,154.5171 573.190588,146.215882 L573.190588,46.6017647 C573.190588,40.6723233 574.207049,35.166496 576.24,30.0841176 C578.272951,25.0017393 581.152923,20.5970775 584.88,16.87 C588.607077,13.1429225 593.054092,10.2205988 598.221176,8.10294118 C603.388261,5.98528353 609.105851,4.92647059 615.374118,4.92647059 C627.571826,4.92647059 637.482315,8.90760725 645.105882,16.87 C648.83296,20.7664901 651.755284,25.3829145 653.872941,30.7194118 C655.990599,36.055909 657.049412,41.858204 657.049412,48.1264706 L657.049412,58.2911765 L631.129412,58.2911765 L631.129412,49.6511765 C631.129412,44.5687981 629.689426,40.1641363 626.809412,36.4370588 C623.929397,32.7099814 620.032966,30.8464706 615.12,30.8464706 C608.682321,30.8464706 604.404716,32.8370389 602.287059,36.8182353 C600.169401,40.7994317 599.110588,45.8393813 599.110588,51.9382353 L599.110588,144.437059 C599.110588,149.68885 600.254106,154.093512 602.541176,157.651176 C604.828247,161.208841 608.936441,162.987647 614.865882,162.987647 C616.560008,162.987647 618.381167,162.691179 620.329412,162.098235 C622.277657,161.505291 624.098815,160.531183 625.792941,159.175882 C627.317655,157.820581 628.58823,155.957071 629.604706,153.585294 C630.621182,151.213518 631.129412,148.248841 631.129412,144.691176 L631.129412,135.797059 L657.049412,135.797059 Z M678.141176,187.382941 L678.141176,6.45117647 L704.061176,6.45117647 L704.061176,83.9570588 L736.08,83.9570588 L736.08,6.45117647 L762,6.45117647 L762,187.382941 L736.08,187.382941 L736.08,106.827647 L704.061176,106.827647 L704.061176,187.382941 L678.141176,187.382941 Z" id="text" fill="#000000" fill-rule="nonzero"></path>
            <path d="M71.6317171,65.3683205 C67.1406928,60.8772265 59.8593072,60.8772265 55.3682829,65.3683205 C50.877239,69.8593162 50.877239,77.1406838 55.3682829,81.6316795 C59.8593072,86.1227735 67.1406928,86.1227735 71.6317171,81.6316795 C76.122761,77.1406838 76.122761,69.8593162 71.6317171,65.3683205 L71.6317171,65.3683205 Z M151.631679,110.368283 C147.140684,105.877239 139.859316,105.877239 135.368321,110.368283 C130.877226,114.859307 130.877226,122.140693 135.368321,126.631717 C139.859316,131.122761 147.140684,131.122761 151.631679,126.631717 C156.122774,122.140693 156.122774,114.859307 151.631679,110.368283 L151.631679,110.368283 Z M70.6317171,156.368283 C66.1406928,151.877239 58.8593072,151.877239 54.3682829,156.368283 C49.877239,160.859307 49.877239,168.140693 54.3682829,172.631717 C58.8593072,177.122761 66.1406928,177.122761 70.6317171,172.631717 C75.122761,168.140693 75.122761,160.859307 70.6317171,156.368283 L70.6317171,156.368283 Z M1.42108547e-14,144.28407 L43.7663574,156.055758 C44.7733203,154.024334 46.1200879,152.119442 47.8066602,150.426476 C56.1745605,142.026762 69.7396094,142.023556 78.1114746,150.416859 L122.459863,125.740809 C121.425195,122.167762 121.331348,118.378388 122.178223,114.766081 L78.6991016,89.0552381 C78.5972461,89.1616955 78.4940918,89.2673687 78.3896289,89.3722576 C70.0185254,97.7751379 56.4463184,97.7751379 48.0752148,89.3722576 C39.704082,80.9693774 39.704082,67.3455756 48.0752148,58.9426954 C56.4463184,50.5398152 70.0185254,50.5398152 78.3896289,58.9426954 C78.527002,59.0806195 78.6621289,59.2199159 78.7949902,59.3605848 L125.769629,33.2232357 L119.04707,21.0492542 L160.494629,19.6178629 L137.321387,54.1423099 L130.598828,41.9683284 L83.7812402,68.0183354 L83.7812402,68.0183354 C84.9768848,72.0638144 84.9634082,76.3926897 83.7408105,80.431797 L126.674219,105.819984 C127.056152,105.367707 127.459668,104.927516 127.884766,104.500795 C136.255859,96.0978947 149.828125,96.0978947 158.199219,104.500795 C166.570312,112.903685 166.570312,126.527428 158.199219,134.930318 C155.3875,137.752674 151.989062,139.627069 148.398047,140.553484 L148.398047,197 C179.161816,191.862743 200,181.982506 200,170.645519 L200,30.1139151 C200,13.4910732 155.2,0 100,0 C44.8,0 1.42108547e-14,13.4910732 1.42108547e-14,30.1139151 L1.42108547e-14,144.28407 Z M1.42108547e-14,154.108347 L1.42108547e-14,170.037706 C1.42108547e-14,186.576892 44.9821585,200 100.406604,200 C114.079454,200 127.116722,199.183106 139,197.704057 L139,140.275667 C135.117186,139.430042 131.424008,137.505588 128.40475,134.502327 C128.238452,134.33689 128.075389,134.169416 127.91566,134 L83.6772458,158.391775 C86.1151358,165.813373 84.3689629,174.297999 78.4387175,180.196777 C70.0335768,188.557388 56.4061846,188.557388 48.0010439,180.196777 C43.8402295,176.05804 41.7391429,170.646344 41.697784,165.221998 L1.42108547e-14,154.108347 Z" id="bug" fill="#22538E"></path>
        </g>
    </g>
</svg>