<?xml version="1.0" encoding="UTF-8"?>
<svg width="1024px" height="1024px" viewBox="0 0 1024 1024" version="1.1" xmlns="http://www.w3.org/2000/svg" xmlns:xlink="http://www.w3.org/1999/xlink">
    <!-- Generator: Sketch 53.2 (72643) - https://sketchapp.com -->
    <title>sqitch-mark</title>
    <desc>Created with Sketch.</desc>
    <g id="Sqitch" stroke="none" stroke-width="1" fill="none" fill-rule="evenodd">
        <g id="sqitch-logo" fill="#22538E">
            <path d="M640.275795,166.59979 L405.256632,302.288168 C397.885131,294.27607 389.189585,287.231235 379.262794,281.5 C326.650606,251.124339 259.375661,269.150606 229,321.762794 C198.624339,374.374983 216.650606,441.649928 269.262794,472.025589 C314.869435,498.356595 371.493982,488.317367 405.550669,450.907184 L627.179093,578.864414 C624.45706,588.441237 623,598.550461 623,609 C623,620.598892 624.795214,631.77849 628.122945,642.276097 L405.062475,771.06012 C398.05104,763.386802 389.825211,756.585944 380.460107,750.958821 C335.451869,723.915144 278.860653,732.832761 244.129247,769.373449 L7.10542736e-15,622.685798 L0,153.6 C0,68.8128 229.376,0 512,0 C794.624,0 1024,68.8128 1024,153.6 L1024,870.4 C1024,928.567534 916.043527,979.21667 757.000089,1005.28656 L757,716.37412 C806.20948,705.42334 843,661.508113 843,609 C843,548.248678 793.751322,499 733,499 C699.935364,499 670.278055,513.588498 650.113558,536.680008 L429.383767,409.241603 C436.097978,387.580313 435.775929,364.778564 429.231061,343.87215 L664.275795,208.16901 L696.325223,263.680247 L815.332174,93.8063324 L608.713573,111.932417 L640.275795,166.59979 Z M652.295599,683.745635 C667.193808,699.823902 686.837402,711.44219 709,716.37412 L709,1012.2047 C648.34977,1019.80293 581.798752,1024 512,1024 C229.376,1024 0,955.1872 0,870.4 L0,678.684201 L219.40742,810.517479 C203.449314,858.338305 222.143492,912.49195 267.15173,939.535627 C319.225777,970.824872 386.805077,953.97546 418.094321,901.901413 C434.875033,873.973618 437.809737,841.586084 428.890516,812.728619 L652.295599,683.745635 Z M293.418672,895.820095 C265.488047,879.037682 256.450635,842.790603 273.233048,814.859978 C290.01546,786.929353 326.26254,777.891941 354.193165,794.674354 C382.12379,811.456766 391.161202,847.703845 374.378789,875.634471 C357.596376,903.565096 321.349297,912.602508 293.418672,895.820095 Z M792,609 C792,641.5848 765.5848,668 733,668 C700.4152,668 674,641.5848 674,609 C674,576.4152 700.4152,550 733,550 C765.5848,550 792,576.4152 792,609 Z M353.762794,325.667296 C381.982059,341.959696 391.650693,378.04353 375.358293,406.262794 C359.065893,434.482059 322.982059,444.150693 294.762794,427.858293 C266.54353,411.565893 256.874895,375.482059 273.167296,347.262794 C289.459696,319.04353 325.54353,309.374895 353.762794,325.667296 Z" id="sqitch-mark"></path>
        </g>
    </g>
</svg>