<?xml version="1.0" encoding="UTF-8"?>
<svg width="3853px" height="1024px" viewBox="0 0 3853 1024" version="1.1" xmlns="http://www.w3.org/2000/svg" xmlns:xlink="http://www.w3.org/1999/xlink">
    <title>sqitch-logo-blue-white</title>
    <defs>
        <path d="M1024.27149,153.6 L1024.27149,870.4 C1024.27149,955.1872 794.895487,1024 512.271487,1024 C229.647487,1024 0.271486627,955.1872 0.271486627,870.4 L0.271486627,153.6 C0.271486627,68.8128 229.647487,0 512.271487,0 C794.895487,0 1024.27149,68.8128 1024.27149,153.6 Z" id="path-1"></path>
    </defs>
    <g id="Sqitch" stroke="none" stroke-width="1" fill="none" fill-rule="evenodd">
        <g id="sqitch-logo-blue-white">
            <g id="icon-copy">
                <mask id="mask-2" fill="white">
                    <use xlink:href="#path-1"></use>
                </mask>
                <use id="db" fill="#22538E" xlink:href="#path-1"></use>
                <path d="M815.603661,93.8063324 L696.59671,263.680247 L664.5474,208.169332 L429.50273,343.872733 C436.047393,364.778894 436.369399,387.580311 429.655343,409.241314 L650.385898,536.679031 C670.550378,513.588087 700.207317,499 733.271487,499 C794.022809,499 843.271487,548.248678 843.271487,609 C843.271487,661.507414 806.481946,705.422171 757.273453,716.373683 L757.271487,1042 L709.271487,1042 L709.27052,716.373905 C687.108471,711.441886 667.465351,699.823829 652.567395,683.74597 L429.162296,812.729567 C438.08116,841.586793 435.146336,873.973924 418.365808,901.901413 C387.076564,953.97546 319.497264,970.824872 267.423217,939.535627 C222.415241,912.492107 203.721019,858.338936 219.678627,810.518316 L-37.1506002,656.198743 L-12.4287726,615.054713 L244.402308,769.371793 C279.13385,732.832491 335.724035,723.915552 380.731593,750.958821 C390.096331,756.585724 398.321882,763.386269 405.333138,771.059219 L628.394108,642.275078 C625.066584,631.777766 623.271487,620.598517 623.271487,609 C623.271487,598.550554 624.72852,588.441416 627.450507,578.864668 L405.821463,450.907944 C371.7647,488.317503 315.140613,498.356417 269.534281,472.025589 C216.922092,441.649928 198.895825,374.374983 229.271487,321.762794 C259.647148,269.150606 326.922092,251.124339 379.534281,281.5 C389.46089,287.23113 398.156299,294.275812 405.527714,302.287728 L640.5464,166.599332 L608.98506,111.932417 L815.603661,93.8063324 Z M273.504534,814.859978 C256.722121,842.790603 265.759533,879.037682 293.690159,895.820095 C321.620784,912.602508 357.867863,903.565096 374.650276,875.634471 C391.432689,847.703845 382.395277,811.456766 354.464651,794.674354 C326.534026,777.891941 290.286947,786.929353 273.504534,814.859978 Z M733.271487,550 C700.686686,550 674.271487,576.4152 674.271487,609 C674.271487,641.5848 700.686686,668 733.271487,668 C765.856287,668 792.271487,641.5848 792.271487,609 C792.271487,576.4152 765.856287,550 733.271487,550 Z M273.438782,347.262794 C257.146382,375.482059 266.815016,411.565893 295.034281,427.858293 C323.253546,444.150693 359.33738,434.482059 375.62978,406.262794 C391.92218,378.04353 382.253546,341.959696 354.034281,325.667296 C325.815016,309.374895 289.731182,319.04353 273.438782,347.262794 Z" id="s" fill="#FFFFFF" mask="url(#mask-2)"></path>
            </g>
            <path d="M1545,308.3 L1412.4,308.3 L1412.4,278.4 C1412.4,248.066515 1405.25007,221.850111 1390.95,199.75 C1376.64993,177.64989 1352.60017,166.6 1318.8,166.6 C1300.59991,166.6 1285.86672,170.066632 1274.6,177 C1263.33328,183.933368 1254.23337,192.599948 1247.3,203 C1240.36663,214.266723 1235.60001,227.049929 1233,241.35 C1230.39999,255.650072 1229.1,270.599922 1229.1,286.2 C1229.1,304.400091 1229.74999,319.566606 1231.05,331.7 C1232.35001,343.833394 1235.59997,354.666619 1240.8,364.2 C1246.00003,373.733381 1253.58328,381.966632 1263.55,388.9 C1273.51672,395.833368 1287.16658,402.766632 1304.5,409.7 L1405.9,450 C1435.36681,461.266723 1459.19991,474.483258 1477.4,489.65 C1495.60009,504.816743 1509.89995,522.366567 1520.3,542.3 C1529.83338,563.100104 1536.33332,586.716535 1539.8,613.15 C1543.26668,639.583466 1545,669.699831 1545,703.5 C1545,742.500195 1541.10004,778.683167 1533.3,812.05 C1525.49996,845.416834 1512.93342,873.799883 1495.6,897.2 C1477.39991,921.466788 1453.56681,940.533264 1424.1,954.4 C1394.63319,968.266736 1358.66688,975.2 1316.2,975.2 C1284.13317,975.2 1254.23347,969.566723 1226.5,958.3 C1198.76653,947.033277 1174.93343,931.433433 1155,911.5 C1135.06657,891.566567 1119.25006,868.383466 1107.55,841.95 C1095.84994,815.516535 1090,786.700156 1090,755.5 L1090,706.1 L1222.6,706.1 L1222.6,747.7 C1222.6,771.966788 1229.74993,793.849903 1244.05,813.35 C1258.35007,832.850098 1282.39983,842.6 1316.2,842.6 C1338.73345,842.6 1356.28327,839.350033 1368.85,832.85 C1381.41673,826.349968 1391.16663,817.033394 1398.1,804.9 C1405.03337,792.766606 1409.14999,778.250085 1410.45,761.35 C1411.75001,744.449916 1412.4,725.600104 1412.4,704.8 C1412.4,680.533212 1411.53334,660.600078 1409.8,645 C1408.06666,629.399922 1404.60003,616.833381 1399.4,607.3 C1393.3333,597.766619 1385.31672,589.966697 1375.35,583.9 C1365.38328,577.833303 1352.16675,571.333368 1335.7,564.4 L1240.8,525.4 C1183.59971,501.999883 1145.2501,471.01686 1125.75,432.45 C1106.2499,393.883141 1096.5,345.566957 1096.5,287.5 C1096.5,252.83316 1101.26662,219.900156 1110.8,188.7 C1120.33338,157.499844 1134.63324,130.633446 1153.7,108.1 C1171.90009,85.566554 1195.08319,67.5834005 1223.25,54.15 C1251.41681,40.7165995 1284.9998,34 1324,34 C1356.9335,34 1387.04986,40.066606 1414.35,52.2 C1441.65014,64.333394 1465.26657,80.366567 1485.2,100.3 C1525.06687,141.900208 1545,189.566398 1545,243.3 L1545,308.3 Z M1768.6,749 C1768.6,781.066827 1777.48324,804.683258 1795.25,819.85 C1813.01676,835.016743 1834.03321,842.6 1858.3,842.6 C1870.43339,842.6 1879.96663,840.866684 1886.9,837.4 L1827.1,789.3 L1894.7,708.7 L1948,751.6 L1948,260.2 C1948,228.133173 1939.11676,204.516743 1921.35,189.35 C1903.58324,174.183257 1882.56679,166.6 1858.3,166.6 C1834.03321,166.6 1813.01676,174.183257 1795.25,189.35 C1777.48324,204.516743 1768.6,228.133173 1768.6,260.2 L1768.6,749 Z M1636,260.2 C1636,222.933147 1642.49993,190.000143 1655.5,161.4 C1668.50006,132.799857 1685.83322,108.966762 1707.5,89.9 C1728.3001,71.699909 1751.91653,57.833381 1778.35,48.3 C1804.78347,38.766619 1831.4332,34 1858.3,34 C1885.1668,34 1911.81653,38.766619 1938.25,48.3 C1964.68347,57.833381 1988.73322,71.699909 2010.4,89.9 C2031.2001,108.966762 2048.09993,132.799857 2061.1,161.4 C2074.10006,190.000143 2080.6,222.933147 2080.6,260.2 L2080.6,749 C2080.6,785.400182 2074.10006,817.033199 2061.1,843.9 L2143,910.2 L2075.4,990.8 L1997.4,927.1 C1957.53313,959.166827 1911.16693,975.2 1858.3,975.2 C1831.4332,975.2 1804.78347,970.433381 1778.35,960.9 C1751.91653,951.366619 1728.3001,937.066762 1707.5,918 C1685.83322,899.799909 1668.50006,876.833472 1655.5,849.1 C1642.49993,821.366528 1636,788.000195 1636,749 L1636,260.2 Z M2201.5,967.4 L2201.5,41.8 L2334.1,41.8 L2334.1,967.4 L2201.5,967.4 Z M2549.9,967.4 L2549.9,166.6 L2396.5,166.6 L2396.5,41.8 L2835.9,41.8 L2835.9,166.6 L2682.5,166.6 L2682.5,967.4 L2549.9,967.4 Z M3315.6,703.5 L3315.6,760.7 C3315.6,789.300143 3310.18339,816.383206 3299.35,841.95 C3288.51661,867.516795 3273.56676,890.266567 3254.5,910.2 C3235.43324,930.133433 3213.11679,945.949942 3187.55,957.65 C3161.98321,969.350059 3134.46681,975.2 3105,975.2 C3079.86654,975.2 3054.30013,971.733368 3028.3,964.8 C3002.29987,957.866632 2978.9001,945.73342 2958.1,928.4 C2937.2999,911.06658 2920.1834,888.750137 2906.75,861.45 C2893.3166,834.149864 2886.6,799.266879 2886.6,756.8 L2886.6,247.2 C2886.6,216.866515 2891.79995,188.70013 2902.2,162.7 C2912.60005,136.69987 2927.33324,114.166762 2946.4,95.1 C2965.46676,76.033238 2988.21653,61.0833875 3014.65,50.25 C3041.08347,39.4166125 3070.33317,34 3102.4,34 C3164.80031,34 3215.4998,54.366463 3254.5,95.1 C3273.56676,115.033433 3288.51661,138.649864 3299.35,165.95 C3310.18339,193.250137 3315.6,222.933173 3315.6,255 L3315.6,307 L3183,307 L3183,262.8 C3183,236.79987 3175.63341,214.266762 3160.9,195.2 C3146.16659,176.133238 3126.23346,166.6 3101.1,166.6 C3068.1665,166.6 3046.28339,176.783232 3035.45,197.15 C3024.61661,217.516769 3019.2,243.299844 3019.2,274.5 L3019.2,747.7 C3019.2,774.566801 3025.04994,797.099909 3036.75,815.3 C3048.45006,833.500091 3069.46652,842.6 3099.8,842.6 C3108.46671,842.6 3117.78328,841.083349 3127.75,838.05 C3137.71672,835.016652 3147.03329,830.033368 3155.7,823.1 C3163.50004,816.166632 3169.99997,806.633394 3175.2,794.5 C3180.40003,782.366606 3183,767.200091 3183,749 L3183,703.5 L3315.6,703.5 Z M3423.5,967.4 L3423.5,41.8 L3556.1,41.8 L3556.1,438.3 L3719.9,438.3 L3719.9,41.8 L3852.5,41.8 L3852.5,967.4 L3719.9,967.4 L3719.9,555.3 L3556.1,555.3 L3556.1,967.4 L3423.5,967.4 Z" id="sqitch-text" fill="#FFFFFF" fill-rule="nonzero"></path>
        </g>
    </g>
</svg>