<?xml version="1.0" encoding="utf-8"?>
<!-- Generator: Adobe Illustrator 21.1.0, SVG Export Plug-In . SVG Version: 6.00 Build 0)  -->
<svg version="1.1" id="Layer_1" xmlns="http://www.w3.org/2000/svg" xmlns:xlink="http://www.w3.org/1999/xlink" x="0px" y="0px"
	 viewBox="0 0 500 200" style="enable-background:new 0 0 500 200;" xml:space="preserve">
<style type="text/css">
	.st0{fill:#aba7a0;}
	.st1{fill:#484139;}
</style>
<g>
	<g>
		<g>
			<circle class="st0" cx="328" cy="17.9" r="17.9"/>
			<path class="st0" d="M130.6,142.4h65.7c3.1,0,5.6,2.3,5.6,5.4c0,3.1-2.5,5.4-5.6,5.4h-59.7c2.1,4.8,4.4,7.2,6.9,12h151.4
				c7.3-12,12.9-21.5,16.6-32.3H126.8C127.9,136.4,129.2,140,130.6,142.4z"/>
			<path class="st0" d="M219.1,6.3c-16.2,0-31.4,4-44.8,11h18.8c3,0,5.6,2.4,5.6,5.4c0.1,3.1-2.5,5.6-5.6,5.6h-35.6
				c-3.7,3-7.1,6.3-10.3,9.8h119.9c8.7,0,12.1-11.3,4.8-16C256.8,12.1,238.7,6.3,219.1,6.3z"/>
			<path class="st0" d="M166.4,184.5h53.7c3,0,5.6,2.4,5.6,5.4c0.1,3.1-2.5,5.6-5.6,5.6h-30.5c9.3,3,19.2,4.6,29.5,4.6
				c14.3,0,28-3.1,40.2-8.7c8.5-3.9,5.7-16.7-3.7-16.7H153.7C157.7,178.3,161.9,181.6,166.4,184.5z"/>
			<path class="st0" d="M122.3,100.5h103c3.1,0,5.6,2.3,5.6,5.4s-2.5,5.4-5.6,5.4H122.6c0.3,3.6,0.8,7.2,1.4,10.8h190.2
				c1.2-6,1.8-11.8,1.8-18.1c0-4.1-0.3-9.4-0.8-11.8H123C122.6,94.5,122.4,98.1,122.3,100.5z"/>
			<path class="st0" d="M138.7,50.3c-2.1,2.4-4,4.8-5.8,9.6h25c3.1,0,5.6,2.3,5.6,5.4c0,3.1-2.5,5.4-5.6,5.4H128
				c-1.2,3.6-2.1,6-3,10.8h188.2c-2.7-12-7.4-22.7-13.7-31.1H138.7z"/>
		</g>
	</g>
	<g>
		<g>
			<path class="st1" d="M0.8,99v-6.5h20.8V99h-6.8v66.1H7.6V99H0.8z"/>
			<path class="st1" d="M81.8,92.5c0.8,0,1.6,0.2,2.5,0.7c0.9,0.5,1.6,1,2.3,1.8c0.7,0.7,1.3,1.5,1.7,2.4c0.5,0.9,0.7,1.6,0.7,2.4
				v65.4h-7.2v-33h-5.9v33h-7.2V99.7c0-0.7,0.2-1.5,0.7-2.4c0.5-0.9,1-1.6,1.7-2.4c0.7-0.7,1.5-1.3,2.3-1.8c0.9-0.5,1.7-0.7,2.5-0.7
				H81.8z M75.9,125.4h5.9V99.1h-5.9V125.4z"/>
			<path class="st1" d="M144.4,165.1c-0.8,0-1.6-0.2-2.5-0.7c-0.9-0.5-1.6-1-2.3-1.8c-0.7-0.7-1.3-1.5-1.7-2.4
				c-0.5-0.9-0.7-1.6-0.7-2.4V92.5h7.2v66h5.9v-66h7.2v65.4c0,0.7-0.2,1.5-0.7,2.4c-0.5,0.9-1,1.6-1.7,2.4c-0.7,0.7-1.5,1.3-2.3,1.8
				c-0.9,0.5-1.7,0.7-2.5,0.7H144.4z"/>
		</g>
		<g>
			<path class="st1" d="M278.2,151.3h7.2v7.3h5.9V132h-5.9c-0.8,0-1.6-0.2-2.5-0.7c-0.9-0.5-1.6-1-2.3-1.8c-0.7-0.7-1.3-1.5-1.7-2.4
				c-0.5-0.9-0.7-1.6-0.7-2.4v-24.5c0-0.9,0.2-1.7,0.7-2.7c0.5-0.9,1.1-1.8,1.9-2.6c0.8-0.8,1.6-1.4,2.5-1.9
				c0.9-0.5,1.8-0.7,2.7-0.7h12.5v13.8h-7.2V99h-5.9v26.6h5.9c0.8,0,1.6,0.2,2.5,0.7c0.9,0.5,1.6,1,2.3,1.8c0.7,0.7,1.3,1.5,1.7,2.4
				c0.5,0.9,0.7,1.6,0.7,2.4v24.5c0,0.9-0.2,1.7-0.7,2.7c-0.5,0.9-1.1,1.8-1.9,2.6c-0.8,0.8-1.6,1.4-2.5,1.9
				c-0.9,0.5-1.8,0.7-2.7,0.7h-12.5V151.3z"/>
			<path class="st1" d="M314,99v-6.5h20.8V99H328v66.1h-7.2V99H314z"/>
			<path class="st1" d="M362.4,92.5c0.8,0,1.6,0.2,2.5,0.7c0.9,0.5,1.6,1,2.3,1.8c0.7,0.7,1.3,1.5,1.7,2.4c0.5,0.9,0.7,1.6,0.7,2.4
				v65.4h-7.2v-33h-5.9v33h-7.2V99.7c0-0.7,0.2-1.5,0.7-2.4c0.5-0.9,1-1.6,1.7-2.4c0.7-0.7,1.5-1.3,2.3-1.8c0.9-0.5,1.7-0.7,2.5-0.7
				H362.4z M356.5,125.4h5.9V99.1h-5.9V125.4z"/>
			<path class="st1" d="M384.1,99v-6.5h20.8V99h-6.8v66.1h-7.2V99H384.1z"/>
			<path class="st1" d="M427.6,165.1h-7.2V92.5h7.2V165.1z"/>
			<path class="st1" d="M456.2,165.1h-5.9c-0.8,0-1.6-0.2-2.5-0.7c-0.9-0.5-1.6-1-2.3-1.8c-0.7-0.7-1.3-1.5-1.7-2.4
				c-0.5-0.9-0.7-1.6-0.7-2.4v-57.5c0-0.9,0.2-1.7,0.7-2.7c0.5-0.9,1.1-1.8,1.9-2.6c0.8-0.8,1.6-1.4,2.5-1.9
				c0.9-0.5,1.8-0.7,2.7-0.7h4.7c0.9,0,1.7,0.2,2.7,0.7c0.9,0.5,1.8,1.1,2.5,1.9c0.8,0.8,1.4,1.6,1.9,2.6c0.5,0.9,0.7,1.8,0.7,2.7
				v57.5c0,0.7-0.2,1.5-0.7,2.4c-0.5,0.9-1,1.6-1.7,2.4c-0.7,0.7-1.5,1.3-2.3,1.8C457.8,164.9,457,165.1,456.2,165.1z M450.3,99
				v59.5h5.9V99H450.3z"/>
			<path class="st1" d="M484,92.5l8.1,37.9V92.5h7.2v72.6h-5l-8.1-38v38h-7.2V92.5H484z"/>
		</g>
	</g>
</g>
</svg>
