<?xml version="1.0" encoding="UTF-8"?>
<svg width="260px" height="260px" viewBox="0 0 260 260" version="1.1" xmlns="http://www.w3.org/2000/svg" xmlns:xlink="http://www.w3.org/1999/xlink">
    <!-- Generator: Sketch 53 (72520) - https://sketchapp.com -->
    <title>bug</title>
    <desc>Created with Sketch.</desc>
    <g id="Logo" stroke="none" stroke-width="1" fill="none" fill-rule="evenodd">
        <g id="masthead" transform="translate(0.000000, -52.000000)" fill="#000000">
            <path d="M93.1212322,136.978817 C87.2829007,131.140394 77.8170993,131.140394 71.9787678,136.978817 C66.1404107,142.817111 66.1404107,152.282889 71.9787678,158.121183 C77.8170993,163.959606 87.2829007,163.959606 93.1212322,158.121183 C98.9595893,152.282889 98.9595893,142.817111 93.1212322,136.978817 L93.1212322,136.978817 Z M197.121183,195.478768 C191.282889,189.640411 181.817111,189.640411 175.978817,195.478768 C170.140394,201.317099 170.140394,210.782901 175.978817,216.621232 C181.817111,222.459589 191.282889,222.459589 197.121183,216.621232 C202.959606,210.782901 202.959606,201.317099 197.121183,195.478768 L197.121183,195.478768 Z M91.8212322,255.278768 C85.9829007,249.440411 76.5170993,249.440411 70.6787678,255.278768 C64.8404107,261.117099 64.8404107,270.582901 70.6787678,276.421232 C76.5170993,282.259589 85.9829007,282.259589 91.8212322,276.421232 C97.6595893,270.582901 97.6595893,261.117099 91.8212322,255.278768 L91.8212322,255.278768 Z M0,239.569291 L56.8962646,254.872486 C58.2053164,252.231634 59.9561143,249.755275 62.1486582,247.554418 C73.0269287,236.63479 90.6614922,236.630623 101.544917,247.541917 L159.197822,215.463052 C157.852754,210.818091 157.730752,205.891905 158.831689,201.195906 L102.308832,167.77181 C102.17642,167.910204 102.042319,168.047579 101.906518,168.183935 C91.024083,179.107679 73.3802139,179.107679 62.4977793,168.183935 C51.6153066,157.260191 51.6153066,139.549248 62.4977793,128.625504 C73.3802139,117.70176 91.024083,117.70176 101.906518,128.625504 C102.085103,128.804805 102.260768,128.985891 102.433487,129.16876 L163.500518,95.1902064 L154.761191,79.3640304 L208.643018,77.5032218 L178.517803,122.385003 L169.778477,106.558827 L108.915612,140.423836 L108.915612,140.423836 C110.46995,145.682959 110.452431,151.310497 108.863054,156.561336 L164.676484,189.565979 C165.172998,188.978019 165.697568,188.405771 166.250195,187.851033 C177.132617,176.927263 194.776563,176.927263 205.658984,187.851033 C216.541406,198.77479 216.541406,216.485656 205.658984,227.409413 C202.00375,231.078476 197.585781,233.51519 192.917461,234.719529 L192.917461,308.1 C232.910361,301.421565 260,288.577258 260,273.839175 L260,91.1480897 C260,69.5383951 201.76,52 130,52 C58.24,52 0,69.5383951 0,91.1480897 L0,239.569291 Z M1.42108547e-14,252.340852 L1.42108547e-14,273.049017 C1.42108547e-14,294.54996 58.4768061,312 130.528585,312 C148.30329,312 165.251738,310.938037 180.7,309.015274 L180.7,234.358367 C175.652342,233.259054 170.85121,230.757265 166.926175,226.853025 C166.709987,226.637958 166.498006,226.42024 166.290358,226.2 L108.78042,257.909308 C111.949676,267.557385 109.679652,278.587398 101.970333,286.255809 C91.0436498,297.124604 73.32804,297.124604 62.401357,286.255809 C56.9922984,280.875451 54.2608858,273.840247 54.2071192,266.788598 L1.42108547e-14,252.340852 Z" id="bug"></path>
        </g>
    </g>
</svg>