<?xml version="1.0" encoding="UTF-8"?>
<svg width="754px" height="754px" viewBox="0 0 754 754" version="1.1" xmlns="http://www.w3.org/2000/svg" xmlns:xlink="http://www.w3.org/1999/xlink">
    <!-- Generator: Sketch 53.1 (72631) - https://sketchapp.com -->
    <title>safari-pinned-tab</title>
    <desc>Created with Sketch.</desc>
    <g id="Logo" stroke="none" stroke-width="1" fill="none" fill-rule="evenodd">
        <path d="M270.051573,246.438568 C253.120412,229.507144 225.669588,229.507144 208.738427,246.438568 C191.807191,263.369622 191.807191,290.820378 208.738427,307.751432 C225.669588,324.682856 253.120412,324.682856 270.051573,307.751432 C286.982809,290.820378 286.982809,263.369622 270.051573,246.438568 L270.051573,246.438568 Z M571.651432,416.088427 C554.720378,399.157191 527.269622,399.157191 510.338568,416.088427 C493.407144,433.019588 493.407144,460.470412 510.338568,477.401573 C527.269622,494.332809 554.720378,494.332809 571.651432,477.401573 C588.582856,460.470412 588.582856,433.019588 571.651432,416.088427 L571.651432,416.088427 Z M266.281573,589.508427 C249.350412,572.577191 221.899588,572.577191 204.968427,589.508427 C188.037191,606.439588 188.037191,633.890412 204.968427,650.821573 C221.899588,667.752809 249.350412,667.752809 266.281573,650.821573 C283.212809,633.890412 283.212809,606.439588 266.281573,589.508427 L266.281573,589.508427 Z M0,543.950945 L164.999167,588.330209 C168.795418,580.671738 173.872731,573.490298 180.231109,567.107813 C211.778093,535.440892 262.918327,535.428807 294.480259,567.071559 L461.673685,474.042851 C457.772986,460.572463 457.419181,446.286525 460.611899,432.668126 L296.695613,335.738248 C296.311618,336.139592 295.922726,336.53798 295.528901,336.933411 C263.969841,368.61227 212.80262,368.61227 181.24356,336.933411 C149.684389,305.254553 149.684389,253.89282 181.24356,222.213962 C212.80262,190.535103 263.969841,190.535103 295.528901,222.213962 C296.046797,222.733935 296.556226,223.259083 297.057113,223.789405 L474.151501,125.251598 L448.807455,79.3556882 L605.064751,73.9593432 L517.701628,204.116508 L492.357582,158.220598 L315.855276,256.429124 L315.855276,256.429124 C320.362856,271.68058 320.312049,288.00044 315.702856,303.227875 L477.561805,398.94134 C479.001694,397.236254 480.522948,395.576736 482.125566,393.967996 C513.68459,362.289063 564.852031,362.289063 596.411055,393.967996 C627.970078,425.646891 627.970078,477.008402 596.411055,508.687297 C585.810875,519.32758 572.998766,526.39405 559.460637,529.886633 L559.460637,742.69 C675.440048,723.322539 754,686.074048 754,643.333607 L754,113.52946 C754,50.8613459 585.104,0 377,0 C168.896,0 0,50.8613459 0,113.52946 L0,543.950945 Z M0,580.988469 L0,641.04215 C0,703.394883 169.582738,754 378.532897,754 C430.07954,754 479.23004,750.920308 524.03,745.344296 L524.03,528.839264 C509.391793,525.651257 495.46851,518.396068 484.085908,507.073772 C483.458962,506.450077 482.844216,505.818697 482.242038,505.18 L315.463217,597.136993 C324.654062,625.116417 318.07099,657.103455 295.713965,679.341847 C264.026584,710.861353 212.651316,710.861353 180.963935,679.341847 C165.277665,663.738809 157.356569,643.336717 157.200646,622.886933 L0,580.988469 Z" id="safari-pinned-tab" fill="#000000"></path>
    </g>
</svg>